{"accessors" : [{"bufferView" : 0, "byteOffset" : 0, "componentType" : 5123, "count" : 192, "type" : "SCALAR", "max" : [191], "min" : [0]}, {"bufferView" : 1, "byteOffset" : 0, "componentType" : 5126, "count" : 192, "type" : "VEC3", "max" : [4, 173.75, 8.199999809265137], "min" : [-4, 171.25, 6.199999809265137], "name" : "POSITION"}, {"bufferView" : 1, "byteOffset" : 12, "componentType" : 5126, "count" : 192, "type" : "VEC3", "max" : [0.9238830804824829, 0.9238825440406799, 1.0000044107437134], "min" : [-0.9238830804824829, -0.9238825440406799, -1.0000044107437134], "name" : "NORMAL"}, {"bufferView" : 1, "byteOffset" : 24, "componentType" : 5126, "count" : 192, "type" : "VEC2", "max" : [0.6487471461296082, -0.9264345765113831], "min" : [0.4603966772556305, -0.9394457936286926], "name" : "TEXCOORD_0"}, {"bufferView" : 0, "byteOffset" : 384, "componentType" : 5123, "count" : 744, "type" : "SCALAR", "max" : [743], "min" : [0]}, {"bufferView" : 2, "byteOffset" : 0, "componentType" : 5126, "count" : 744, "type" : "VEC3", "max" : [9.263076782226562, 183.89825439453125, 9.680000305175781], "min" : [-9.263076782226562, 159.27960205078125, -13.720002174377441], "name" : "POSITION"}, {"bufferView" : 2, "byteOffset" : 12, "componentType" : 5126, "count" : 744, "type" : "VEC3", "max" : [0.9977454543113708, 1.0000044107437134, 0.999922513961792], "min" : [-0.9977454543113708, -1.0000044107437134, -0.9940771460533142], "name" : "NORMAL"}, {"bufferView" : 2, "byteOffset" : 24, "componentType" : 5126, "count" : 744, "type" : "VEC2", "max" : [0.9208567142486572, -0.636118471622467], "min" : [0.054008547216653824, -0.9980080127716064], "name" : "TEXCOORD_0"}, {"bufferView" : 0, "byteOffset" : 1872, "componentType" : 5123, "count" : 1014, "type" : "SCALAR", "max" : [1013], "min" : [0]}, {"bufferView" : 3, "byteOffset" : 0, "componentType" : 5126, "count" : 1014, "type" : "VEC3", "max" : [56.49898910522461, 162.62298583984375, 12.75], "min" : [-56.49898910522461, 105.12000274658203, -21.447467803955078], "name" : "POSITION"}, {"bufferView" : 3, "byteOffset" : 12, "componentType" : 5126, "count" : 1014, "type" : "VEC3", "max" : [0.9975415468215942, 0.954131007194519, 0.9998486638069153], "min" : [-0.9975414276123047, -0.8918482065200806, -0.9801601767539978], "name" : "NORMAL"}, {"bufferView" : 3, "byteOffset" : 24, "componentType" : 5126, "count" : 1014, "type" : "VEC2", "max" : [0.977750301361084, -0.0019920319318771362], "min" : [0.0019515977473929524, -0.9245196580886841], "name" : "TEXCOORD_0"}, {"bufferView" : 0, "byteOffset" : 3900, "componentType" : 5123, "count" : 1200, "type" : "SCALAR", "max" : [1199], "min" : [0]}, {"bufferView" : 4, "byteOffset" : 0, "componentType" : 5126, "count" : 1200, "type" : "VEC3", "max" : [24.2884578704834, 104.92147064208984, 12.644234657287598], "min" : [-24.2884578704834, 12.129524230957031, -16.372880935668945], "name" : "POSITION"}, {"bufferView" : 4, "byteOffset" : 12, "componentType" : 5126, "count" : 1200, "type" : "VEC3", "max" : [0.9997190237045288, 0.9262800812721252, 1.0000016689300537], "min" : [-0.9997190237045288, -0.9955030083656311, -0.9948038458824158], "name" : "NORMAL"}, {"bufferView" : 4, "byteOffset" : 24, "componentType" : 5126, "count" : 1200, "type" : "VEC2", "max" : [0.9630080461502075, -0.0019920319318771362], "min" : [0.22745083272457123, -0.8676732778549194], "name" : "TEXCOORD_0"}, {"bufferView" : 0, "byteOffset" : 6300, "componentType" : 5123, "count" : 528, "type" : "SCALAR", "max" : [527], "min" : [0]}, {"bufferView" : 5, "byteOffset" : 0, "componentType" : 5126, "count" : 528, "type" : "VEC3", "max" : [25.860828399658203, 3.5498580932617188, 17.768159866333008], "min" : [-25.860828399658203, -0.03687286376953125, -16.59326934814453], "name" : "POSITION"}, {"bufferView" : 5, "byteOffset" : 12, "componentType" : 5126, "count" : 528, "type" : "VEC3", "max" : [0.998325765132904, 0.9998447299003601, 0.9473083019256592], "min" : [-0.9983258247375488, -1.0000044107437134, -0.9067943096160889], "name" : "NORMAL"}, {"bufferView" : 5, "byteOffset" : 24, "componentType" : 5126, "count" : 528, "type" : "VEC2", "max" : [0.6863919496536255, -0.3459932208061218], "min" : [0.04815196245908737, -0.851237416267395], "name" : "TEXCOORD_0"}, {"bufferView" : 0, "byteOffset" : 7356, "componentType" : 5123, "count" : 1359, "type" : "SCALAR", "max" : [1358], "min" : [0]}, {"bufferView" : 6, "byteOffset" : 0, "componentType" : 5126, "count" : 1359, "type" : "VEC3", "max" : [69.7354736328125, 183.6018829345703, 12.97475528717041], "min" : [-69.73545837402344, 92.44807434082031, -13.407994270324707], "name" : "POSITION"}, {"bufferView" : 6, "byteOffset" : 12, "componentType" : 5126, "count" : 1359, "type" : "VEC3", "max" : [0.9996264576911926, 1.000002384185791, 0.9952521920204163], "min" : [-0.9996264576911926, -0.9840754866600037, -0.9872331619262695], "name" : "NORMAL"}, {"bufferView" : 6, "byteOffset" : 24, "componentType" : 5126, "count" : 1359, "type" : "VEC2", "max" : [0.9777503609657288, -0.49808597564697266], "min" : [0.0019515977473929524, -0.9946432709693909], "name" : "TEXCOORD_0"}, {"bufferView" : 0, "byteOffset" : 10076, "componentType" : 5123, "count" : 216, "type" : "SCALAR", "max" : [215], "min" : [0]}, {"bufferView" : 7, "byteOffset" : 0, "componentType" : 5126, "count" : 216, "type" : "VEC3", "max" : [16.64043617248535, 107.77371215820312, 13.060264587402344], "min" : [-16.64043617248535, 102.15624237060547, -13.358479499816895], "name" : "POSITION"}, {"bufferView" : 7, "byteOffset" : 12, "componentType" : 5126, "count" : 216, "type" : "VEC3", "max" : [0.9718587398529053, 0.9784363508224487, 0.9784255623817444], "min" : [-0.9718587398529053, -0.9922675490379333, -0.9999831318855286], "name" : "NORMAL"}, {"bufferView" : 7, "byteOffset" : 24, "componentType" : 5126, "count" : 216, "type" : "VEC2", "max" : [0.9270913004875183, -0.52454674243927], "min" : [0.0019515977473929524, -0.7205880880355835], "name" : "TEXCOORD_0"}, {"bufferView" : 0, "byteOffset" : 10508, "componentType" : 5123, "count" : 660, "type" : "SCALAR", "max" : [659], "min" : [0]}, {"bufferView" : 8, "byteOffset" : 0, "componentType" : 5126, "count" : 660, "type" : "VEC3", "max" : [58.455257415771484, 163.87100219726562, 17.002338409423828], "min" : [-58.45526123046875, 2.4443588256835938, -15.817123413085938], "name" : "POSITION"}, {"bufferView" : 8, "byteOffset" : 12, "componentType" : 5126, "count" : 660, "type" : "VEC3", "max" : [0.9997267127037048, 0.9989539980888367, 0.9860955476760864], "min" : [-0.9997267127037048, -0.9861101508140564, -0.8863240480422974], "name" : "NORMAL"}, {"bufferView" : 8, "byteOffset" : 24, "componentType" : 5126, "count" : 660, "type" : "VEC2", "max" : [0.977750301361084, -0.5207650661468506], "min" : [0.002197509165853262, -0.9978392124176025], "name" : "TEXCOORD_0"}, {"bufferView" : 0, "byteOffset" : 11828, "componentType" : 5123, "count" : 15, "type" : "SCALAR", "max" : [14], "min" : [0]}, {"bufferView" : 9, "byteOffset" : 0, "componentType" : 5126, "count" : 15, "type" : "VEC3", "max" : [61.14802932739258, 111.29070281982422, 7.479790210723877], "min" : [53.50286102294922, 103.62559509277344, 0.530677318572998], "name" : "POSITION"}, {"bufferView" : 9, "byteOffset" : 12, "componentType" : 5126, "count" : 15, "type" : "VEC3", "max" : [0, 1, 0], "min" : [-0.030781937763094902, -0.6207485795021057, -0.783410906791687], "name" : "NORMAL"}, {"bufferView" : 9, "byteOffset" : 24, "componentType" : 5126, "count" : 15, "type" : "VEC2", "max" : [0.7919382452964783, -0.8715837001800537], "min" : [0.32684895396232605, -0.9182130098342896], "name" : "TEXCOORD_0"}], "asset" : {"generator" : "Aspose.3D 22.12", "version" : "2.0"}, "buffers" : [{"uri" : "data:application/octet-stream;base64,", "byteLength" : 201596}], "bufferViews" : [{"buffer" : 0, "byteOffset" : 0, "byteLength" : 11860, "target" : 34963}, {"buffer" : 0, "byteOffset" : 11864, "byteLength" : 6144, "byteStride" : 32, "target" : 34962}, {"buffer" : 0, "byteOffset" : 18012, "byteLength" : 23808, "byteStride" : 32, "target" : 34962}, {"buffer" : 0, "byteOffset" : 41824, "byteLength" : 32448, "byteStride" : 32, "target" : 34962}, {"buffer" : 0, "byteOffset" : 74276, "byteLength" : 38400, "byteStride" : 32, "target" : 34962}, {"buffer" : 0, "byteOffset" : 112680, "byteLength" : 16896, "byteStride" : 32, "target" : 34962}, {"buffer" : 0, "byteOffset" : 129580, "byteLength" : 43488, "byteStride" : 32, "target" : 34962}, {"buffer" : 0, "byteOffset" : 173072, "byteLength" : 6912, "byteStride" : 32, "target" : 34962}, {"buffer" : 0, "byteOffset" : 179988, "byteLength" : 21120, "byteStride" : 32, "target" : 34962}, {"buffer" : 0, "byteOffset" : 201112, "byteLength" : 480, "byteStride" : 32, "target" : 34962}], "materials" : [{"name" : "Eye", "pbrMetallicRoughness" : {"baseColorFactor" : [0, 0, 0, 1], "metallicFactor" : 0, "roughnessFactor" : 0}, "emissiveFactor" : [0, 0, 0], "alphaMode" : "OPAQUE", "doubleSided" : false}, {"name" : "Hair", "pbrMetallicRoughness" : {"baseColorFactor" : [0.09758535027503967, 0.07818696647882462, 0.08437485992908478, 1], "metallicFactor" : 0, "roughnessFactor" : 0}, "emissiveFactor" : [0, 0, 0], "alphaMode" : "OPAQUE", "doubleSided" : false}, {"name" : "Shirt", "pbrMetallicRoughness" : {"baseColorFactor" : [0.07036052644252777, 0.18116171658039093, 0.31855452060699463, 1], "metallicFactor" : 0, "roughnessFactor" : 0}, "emissiveFactor" : [0, 0, 0], "alphaMode" : "OPAQUE", "doubleSided" : false}, {"name" : "Trouser", "pbrMetallicRoughness" : {"baseColorFactor" : [0.37626296281814575, 0.2874460220336914, 0.23073691129684448, 1], "metallicFactor" : 0, "roughnessFactor" : 0}, "emissiveFactor" : [0, 0, 0], "alphaMode" : "OPAQUE", "doubleSided" : false}, {"name" : "Shoes", "pbrMetallicRoughness" : {"baseColorFactor" : [0.5, 0.5, 0.5, 1], "metallicFactor" : 0, "roughnessFactor" : 0}, "emissiveFactor" : [0, 0, 0], "alphaMode" : "OPAQUE", "doubleSided" : false}, {"name" : "Skin", "pbrMetallicRoughness" : {"baseColorFactor" : [0.6239684224128723, 0.37626296281814575, 0.30055078864097595, 1], "metallicFactor" : 0, "roughnessFactor" : 0}, "emissiveFactor" : [0, 0, 0], "alphaMode" : "OPAQUE", "doubleSided" : false}, {"name" : "Belt", "pbrMetallicRoughness" : {"baseColorFactor" : [0.004391503054648638, 0.006512003019452095, 0.009721336886286736, 1], "metallicFactor" : 0, "roughnessFactor" : 0}, "emissiveFactor" : [0, 0, 0], "alphaMode" : "OPAQUE", "doubleSided" : false}, {"name" : "Color", "pbrMetallicRoughness" : {"baseColorFactor" : [0.061247341334819794, 0.061247341334819794, 0.061247341334819794, 1], "metallicFactor" : 0, "roughnessFactor" : 0}, "emissiveFactor" : [0, 0, 0], "alphaMode" : "OPAQUE", "doubleSided" : false}, {"name" : "lambert1", "pbrMetallicRoughness" : {"baseColorFactor" : [0.5, 0.5, 0.5, 1], "metallicFactor" : 0, "roughnessFactor" : 0}, "emissiveFactor" : [0, 0, 0], "alphaMode" : "OPAQUE", "doubleSided" : false}], "meshes" : [{"primitives" : [{"attributes" : {"POSITION" : 1, "NORMAL" : 2, "TEXCOORD_0" : 3}, "indices" : 0, "material" : 0, "mode" : 4}, {"attributes" : {"POSITION" : 5, "NORMAL" : 6, "TEXCOORD_0" : 7}, "indices" : 4, "material" : 1, "mode" : 4}, {"attributes" : {"POSITION" : 9, "NORMAL" : 10, "TEXCOORD_0" : 11}, "indices" : 8, "material" : 2, "mode" : 4}, {"attributes" : {"POSITION" : 13, "NORMAL" : 14, "TEXCOORD_0" : 15}, "indices" : 12, "material" : 3, "mode" : 4}, {"attributes" : {"POSITION" : 17, "NORMAL" : 18, "TEXCOORD_0" : 19}, "indices" : 16, "material" : 4, "mode" : 4}, {"attributes" : {"POSITION" : 21, "NORMAL" : 22, "TEXCOORD_0" : 23}, "indices" : 20, "material" : 5, "mode" : 4}, {"attributes" : {"POSITION" : 25, "NORMAL" : 26, "TEXCOORD_0" : 27}, "indices" : 24, "material" : 6, "mode" : 4}, {"attributes" : {"POSITION" : 29, "NORMAL" : 30, "TEXCOORD_0" : 31}, "indices" : 28, "material" : 7, "mode" : 4}, {"attributes" : {"POSITION" : 33, "NORMAL" : 34, "TEXCOORD_0" : 35}, "indices" : 32, "material" : 8, "mode" : 4}], "name" : ""}], "nodes" : [{"mesh" : 0, "name" : "lowPolyCharacterFace_EXP"}], "scene" : 0, "scenes" : [{"nodes" : [0]}]}