{"accessors" : [{"bufferView" : 0, "byteOffset" : 0, "componentType" : 5123, "count" : 192, "type" : "SCALAR", "max" : [191], "min" : [0]}, {"bufferView" : 1, "byteOffset" : 0, "componentType" : 5126, "count" : 192, "type" : "VEC3", "max" : [4, 173.75, 8.199999809265137], "min" : [-4, 171.25, 6.199999809265137], "name" : "POSITION"}, {"bufferView" : 1, "byteOffset" : 12, "componentType" : 5126, "count" : 192, "type" : "VEC3", "max" : [0.9238830804824829, 0.9238825440406799, 1.0000044107437134], "min" : [-0.9238830804824829, -0.9238825440406799, -1.0000044107437134], "name" : "NORMAL"}, {"bufferView" : 1, "byteOffset" : 24, "componentType" : 5126, "count" : 192, "type" : "VEC2", "max" : [0.65625, -1.4901161193847656E-08], "min" : [0.34375, -1], "name" : "TEXCOORD_0"}, {"bufferView" : 0, "byteOffset" : 384, "componentType" : 5123, "count" : 672, "type" : "SCALAR", "max" : [671], "min" : [0]}, {"bufferView" : 2, "byteOffset" : 0, "componentType" : 5126, "count" : 672, "type" : "VEC3", "max" : [9.263076782226562, 189.74594116210938, 8.630000114440918], "min" : [-9.263076782226562, 164.84951782226562, -28.6108341217041], "name" : "POSITION"}, {"bufferView" : 2, "byteOffset" : 12, "componentType" : 5126, "count" : 672, "type" : "VEC3", "max" : [0.9980510473251343, 0.9997454881668091, 0.9824807047843933], "min" : [-0.9980510473251343, -1.0000027418136597, -0.9824809432029724], "name" : "NORMAL"}, {"bufferView" : 2, "byteOffset" : 24, "componentType" : 5126, "count" : 672, "type" : "VEC2", "max" : [0.875, -0], "min" : [0.125, -1], "name" : "TEXCOORD_0"}, {"bufferView" : 0, "byteOffset" : 1728, "componentType" : 5123, "count" : 264, "type" : "SCALAR", "max" : [263], "min" : [0]}, {"bufferView" : 3, "byteOffset" : 0, "componentType" : 5126, "count" : 264, "type" : "VEC3", "max" : [17.980436325073242, 184.8414306640625, 13.060264587402344], "min" : [-17.980436325073242, 102.15624237060547, -14.497191429138184], "name" : "POSITION"}, {"bufferView" : 3, "byteOffset" : 12, "componentType" : 5126, "count" : 264, "type" : "VEC3", "max" : [0.9718589186668396, 0.9785391092300415, 0.9783778190612793], "min" : [-0.9718588590621948, -0.9922363758087158, -0.9999831914901733], "name" : "NORMAL"}, {"bufferView" : 3, "byteOffset" : 24, "componentType" : 5126, "count" : 264, "type" : "VEC2", "max" : [0.65625, -1.4901161193847656E-08], "min" : [0.34375, -0.75], "name" : "TEXCOORD_0"}, {"bufferView" : 0, "byteOffset" : 2256, "componentType" : 5123, "count" : 1122, "type" : "SCALAR", "max" : [1121], "min" : [0]}, {"bufferView" : 4, "byteOffset" : 0, "componentType" : 5126, "count" : 1122, "type" : "VEC3", "max" : [57.407230377197266, 160.6208953857422, 12.708820343017578], "min" : [-57.407230377197266, 105.12000274658203, -17.804256439208984], "name" : "POSITION"}, {"bufferView" : 4, "byteOffset" : 12, "componentType" : 5126, "count" : 1122, "type" : "VEC3", "max" : [0.9864685535430908, 0.9436408877372742, 0.9995509386062622], "min" : [-0.9864686131477356, -0.9326352477073669, -1.0000029802322388], "name" : "NORMAL"}, {"bufferView" : 4, "byteOffset" : 24, "componentType" : 5126, "count" : 1122, "type" : "VEC2", "max" : [0.65625, -0.3125], "min" : [0.34375, -1.2175617218017578], "name" : "TEXCOORD_0"}, {"bufferView" : 0, "byteOffset" : 4500, "componentType" : 5123, "count" : 1200, "type" : "SCALAR", "max" : [1199], "min" : [0]}, {"bufferView" : 5, "byteOffset" : 0, "componentType" : 5126, "count" : 1200, "type" : "VEC3", "max" : [21.948387145996094, 104.92147064208984, 12.59115219116211], "min" : [-21.948387145996094, 11.290124893188477, -16.276308059692383], "name" : "POSITION"}, {"bufferView" : 5, "byteOffset" : 12, "componentType" : 5126, "count" : 1200, "type" : "VEC3", "max" : [0.9994208812713623, 0.9034390449523926, 0.9999979138374329], "min" : [-0.9994208812713623, -1.0000001192092896, -0.9936894178390503], "name" : "NORMAL"}, {"bufferView" : 5, "byteOffset" : 24, "componentType" : 5126, "count" : 1200, "type" : "VEC2", "max" : [0.65625, 0.04603441432118416], "min" : [0.3437499701976776, -0.31337010860443115], "name" : "TEXCOORD_0"}, {"bufferView" : 0, "byteOffset" : 6900, "componentType" : 5123, "count" : 528, "type" : "SCALAR", "max" : [527], "min" : [0]}, {"bufferView" : 6, "byteOffset" : 0, "componentType" : 5126, "count" : 528, "type" : "VEC3", "max" : [24.701021194458008, 3.5498580932617188, 15.725373268127441], "min" : [-24.701021194458008, -0.03687286376953125, -14.550481796264648], "name" : "POSITION"}, {"bufferView" : 6, "byteOffset" : 12, "componentType" : 5126, "count" : 528, "type" : "VEC3", "max" : [0.9985740184783936, 0.9998114109039307, 0.9504123330116272], "min" : [-0.9985740780830383, -1.0000044107437134, -0.9118950366973877], "name" : "NORMAL"}, {"bufferView" : 6, "byteOffset" : 24, "componentType" : 5126, "count" : 528, "type" : "VEC2", "max" : [0.65625, -0.10043906420469284], "min" : [0.34375, -0.2005414068698883], "name" : "TEXCOORD_0"}, {"bufferView" : 0, "byteOffset" : 7956, "componentType" : 5123, "count" : 1347, "type" : "SCALAR", "max" : [1346], "min" : [0]}, {"bufferView" : 7, "byteOffset" : 0, "componentType" : 5126, "count" : 1347, "type" : "VEC3", "max" : [66.448486328125, 183.6018829345703, 10.034100532531738], "min" : [-66.44847869873047, 96.62815856933594, -13.407994270324707], "name" : "POSITION"}, {"bufferView" : 7, "byteOffset" : 12, "componentType" : 5126, "count" : 1347, "type" : "VEC3", "max" : [0.9938721060752869, 0.9999982118606567, 0.9952521324157715], "min" : [-0.9938720464706421, -0.9991580843925476, -0.9935969710350037], "name" : "NORMAL"}, {"bufferView" : 7, "byteOffset" : 24, "componentType" : 5126, "count" : 1347, "type" : "VEC2", "max" : [1.5598400831222534, -0.6069918870925903], "min" : [0.24568156898021698, -3.779651165008545], "name" : "TEXCOORD_0"}, {"bufferView" : 0, "byteOffset" : 10652, "componentType" : 5123, "count" : 660, "type" : "SCALAR", "max" : [659], "min" : [0]}, {"bufferView" : 8, "byteOffset" : 0, "componentType" : 5126, "count" : 660, "type" : "VEC3", "max" : [58.83177947998047, 161.7849578857422, 15.050607681274414], "min" : [-58.831783294677734, 2.4443588256835938, -14.710614204406738], "name" : "POSITION"}, {"bufferView" : 8, "byteOffset" : 12, "componentType" : 5126, "count" : 660, "type" : "VEC3", "max" : [0.9931311011314392, 0.9987307786941528, 0.9674260020256042], "min" : [-0.9931311011314392, -0.9873487949371338, -0.8623219132423401], "name" : "NORMAL"}, {"bufferView" : 8, "byteOffset" : 24, "componentType" : 5126, "count" : 660, "type" : "VEC2", "max" : [0.65625, -0.10043906420469284], "min" : [0.34375, -0.9968703389167786], "name" : "TEXCOORD_0"}, {"bufferView" : 0, "byteOffset" : 11972, "componentType" : 5123, "count" : 3, "type" : "SCALAR", "max" : [2], "min" : [0]}, {"bufferView" : 9, "byteOffset" : 0, "componentType" : 5126, "count" : 3, "type" : "VEC3", "max" : [59.83357238769531, 109.64189147949219, 5.180124759674072], "min" : [55.225460052490234, 103.87310791015625, 1.0568761825561523], "name" : "POSITION"}, {"bufferView" : 9, "byteOffset" : 12, "componentType" : 5126, "count" : 3, "type" : "VEC3", "max" : [-0.1714373230934143, -0.6598474979400635, -0.6010788679122925], "min" : [-0.24616432189941406, -0.7603393793106079, -0.7315868139266968], "name" : "NORMAL"}, {"bufferView" : 9, "byteOffset" : 24, "componentType" : 5126, "count" : 3, "type" : "VEC2", "max" : [0.5673299431800842, -0.8860993385314941], "min" : [0.36129164695739746, -1.3835196495056152], "name" : "TEXCOORD_0"}], "asset" : {"generator" : "Aspose.3D 22.12", "version" : "2.0"}, "buffers" : [{"uri" : "data:application/octet-stream;base64,", "byteLength" : 203636}], "bufferViews" : [{"buffer" : 0, "byteOffset" : 0, "byteLength" : 11980, "target" : 34963}, {"buffer" : 0, "byteOffset" : 11984, "byteLength" : 6144, "byteStride" : 32, "target" : 34962}, {"buffer" : 0, "byteOffset" : 18132, "byteLength" : 21504, "byteStride" : 32, "target" : 34962}, {"buffer" : 0, "byteOffset" : 39640, "byteLength" : 8448, "byteStride" : 32, "target" : 34962}, {"buffer" : 0, "byteOffset" : 48092, "byteLength" : 35904, "byteStride" : 32, "target" : 34962}, {"buffer" : 0, "byteOffset" : 84000, "byteLength" : 38400, "byteStride" : 32, "target" : 34962}, {"buffer" : 0, "byteOffset" : 122404, "byteLength" : 16896, "byteStride" : 32, "target" : 34962}, {"buffer" : 0, "byteOffset" : 139304, "byteLength" : 43104, "byteStride" : 32, "target" : 34962}, {"buffer" : 0, "byteOffset" : 182412, "byteLength" : 21120, "byteStride" : 32, "target" : 34962}, {"buffer" : 0, "byteOffset" : 203536, "byteLength" : 96, "byteStride" : 32, "target" : 34962}], "materials" : [{"name" : "Eye", "pbrMetallicRoughness" : {"baseColorFactor" : [0, 0, 0, 1], "metallicFactor" : 0, "roughnessFactor" : 0}, "emissiveFactor" : [0, 0, 0], "alphaMode" : "OPAQUE", "doubleSided" : false}, {"name" : "Hair", "pbrMetallicRoughness" : {"baseColorFactor" : [0.9300953149795532, 0.2195221185684204, 0.05780676007270813, 1], "metallicFactor" : 0, "roughnessFactor" : 0}, "emissiveFactor" : [0, 0, 0], "alphaMode" : "OPAQUE", "doubleSided" : false}, {"name" : "Belt", "pbrMetallicRoughness" : {"baseColorFactor" : [0.19120413064956665, 0.12214058637619019, 0.1384342610836029, 1], "metallicFactor" : 0, "roughnessFactor" : 0}, "emissiveFactor" : [0, 0, 0], "alphaMode" : "OPAQUE", "doubleSided" : false}, {"name" : "Shirt", "pbrMetallicRoughness" : {"baseColorFactor" : [0.4620693325996399, 0.7011169195175171, 0.266356885433197, 1], "metallicFactor" : 0, "roughnessFactor" : 0}, "emissiveFactor" : [0, 0, 0], "alphaMode" : "OPAQUE", "doubleSided" : false}, {"name" : "Trouser", "pbrMetallicRoughness" : {"baseColorFactor" : [0.46777576208114624, 0.5028774738311768, 0.7157081365585327, 1], "metallicFactor" : 0, "roughnessFactor" : 0}, "emissiveFactor" : [0, 0, 0], "alphaMode" : "OPAQUE", "doubleSided" : false}, {"name" : "Shoes", "pbrMetallicRoughness" : {"baseColorFactor" : [0.11953993141651154, 0.14126592874526978, 0.194618359208107, 1], "metallicFactor" : 0, "roughnessFactor" : 0}, "emissiveFactor" : [0, 0, 0], "alphaMode" : "OPAQUE", "doubleSided" : false}, {"name" : "Skin", "pbrMetallicRoughness" : {"baseColorFactor" : [0.9911121129989624, 0.8307668566703796, 0.7605350017547607, 1], "metallicFactor" : 0, "roughnessFactor" : 0}, "emissiveFactor" : [0, 0, 0], "alphaMode" : "OPAQUE", "doubleSided" : false}, {"name" : "Color", "pbrMetallicRoughness" : {"baseColorFactor" : [0.7011169195175171, 0.09758535027503967, 0.11953993141651154, 1], "metallicFactor" : 0, "roughnessFactor" : 0}, "emissiveFactor" : [0, 0, 0], "alphaMode" : "OPAQUE", "doubleSided" : false}, {"name" : "lambert1", "pbrMetallicRoughness" : {"baseColorFactor" : [0.5, 0.5, 0.5, 1], "metallicFactor" : 0, "roughnessFactor" : 0}, "emissiveFactor" : [0, 0, 0], "alphaMode" : "OPAQUE", "doubleSided" : false}], "meshes" : [{"primitives" : [{"attributes" : {"POSITION" : 1, "NORMAL" : 2, "TEXCOORD_0" : 3}, "indices" : 0, "material" : 0, "mode" : 4}, {"attributes" : {"POSITION" : 5, "NORMAL" : 6, "TEXCOORD_0" : 7}, "indices" : 4, "material" : 1, "mode" : 4}, {"attributes" : {"POSITION" : 9, "NORMAL" : 10, "TEXCOORD_0" : 11}, "indices" : 8, "material" : 2, "mode" : 4}, {"attributes" : {"POSITION" : 13, "NORMAL" : 14, "TEXCOORD_0" : 15}, "indices" : 12, "material" : 3, "mode" : 4}, {"attributes" : {"POSITION" : 17, "NORMAL" : 18, "TEXCOORD_0" : 19}, "indices" : 16, "material" : 4, "mode" : 4}, {"attributes" : {"POSITION" : 21, "NORMAL" : 22, "TEXCOORD_0" : 23}, "indices" : 20, "material" : 5, "mode" : 4}, {"attributes" : {"POSITION" : 25, "NORMAL" : 26, "TEXCOORD_0" : 27}, "indices" : 24, "material" : 6, "mode" : 4}, {"attributes" : {"POSITION" : 29, "NORMAL" : 30, "TEXCOORD_0" : 31}, "indices" : 28, "material" : 7, "mode" : 4}, {"attributes" : {"POSITION" : 33, "NORMAL" : 34, "TEXCOORD_0" : 35}, "indices" : 32, "material" : 8, "mode" : 4}], "name" : ""}], "nodes" : [{"mesh" : 0, "name" : "lowPolyCharacterFemaleFace7"}], "scene" : 0, "scenes" : [{"nodes" : [0]}]}